# Blender 4.2.1 LTS
# www.blender.org
mtllib flipper.mtl
o Cube
v 4.849565 1.000000 -0.507068
v 4.849565 -1.000000 -0.481667
v 4.849565 1.000000 0.507068
v 4.849565 -1.000000 0.481667
v -0.849822 0.849565 -0.991214
v -1.000000 0.849565 -0.849565
v -0.849565 1.000000 -0.840506
v -1.000000 -0.849565 -0.849565
v -0.849861 -0.849565 -0.990565
v -0.849565 -1.000000 -0.839814
v -1.000000 0.849565 0.849565
v -0.849822 0.849565 0.991214
v -0.849565 1.000000 0.840506
v -0.849565 -1.000000 0.839814
v -0.849861 -0.849565 0.990565
v -1.000000 -0.849565 0.849565
v 4.900579 0.849573 -0.601970
v 4.775974 0.849577 -0.660135
v 4.849732 0.902182 -0.603779
v 5.000000 0.849565 -0.422573
v 4.949242 0.849569 -0.550373
v 4.947755 0.901809 -0.500206
v 4.776030 -0.849577 -0.638951
v 4.900502 -0.849573 -0.580409
v 4.849759 -0.901496 -0.581642
v 4.949358 -0.849569 -0.528382
v 5.000000 -0.849565 -0.400472
v 4.947721 -0.901843 -0.476960
v 4.949242 0.849569 0.550373
v 5.000000 0.849565 0.422573
v 4.947755 0.901809 0.500206
v 4.775974 0.849577 0.660135
v 4.900579 0.849573 0.601970
v 4.849732 0.902182 0.603779
v 5.000000 -0.849565 0.400472
v 4.949358 -0.849569 0.528382
v 4.947721 -0.901843 0.476960
v 4.900502 -0.849573 0.580409
v 4.776030 -0.849577 0.638951
v 4.849759 -0.901496 0.581642
vn -0.0000 -1.0000 -0.0000
vn -1.0000 -0.0000 -0.0000
vn 0.5983 -0.5714 0.5618
vn -0.0000 1.0000 -0.0000
vn 0.0441 -0.7094 -0.7034
vn 0.0606 -0.0064 -0.9981
vn 0.7071 -0.7071 -0.0000
vn 0.0416 0.7048 0.7082
vn 0.0441 -0.7094 0.7034
vn -0.5542 0.5896 -0.5876
vn -0.5524 -0.5906 -0.5882
vn -0.5542 0.5896 0.5876
vn -0.5524 -0.5906 0.5882
vn -0.7071 -0.7071 -0.0000
vn 0.5983 -0.5714 -0.5618
vn 0.6017 0.5621 -0.5675
vn -0.6854 -0.0001 0.7282
vn 0.6017 0.5621 0.5675
vn -0.6854 -0.0001 -0.7282
vn 0.0606 -0.0064 0.9981
vn 1.0000 -0.0000 -0.0000
vn -0.7071 0.7071 -0.0000
vn 0.7071 0.7071 -0.0000
vn 0.7282 -0.0088 0.6853
vn 0.0416 0.7048 -0.7082
vn 0.3957 0.3533 -0.8477
vn 0.8685 0.3560 -0.3449
vn 0.3959 -0.3669 -0.8418
vn 0.8659 -0.3643 -0.3428
vn 0.8685 0.3560 0.3449
vn 0.3957 0.3533 0.8477
vn 0.8659 -0.3643 0.3428
vn 0.3959 -0.3669 0.8418
vn 0.9296 -0.0048 -0.3686
vn 0.4243 -0.0114 -0.9055
vn 0.4243 -0.0114 0.9055
vn 0.9296 -0.0048 0.3686
vn 0.7282 -0.0088 -0.6853
vt 0.131268 0.519473
vt 0.368732 0.529104
vt 0.368732 0.720896
vt 0.131268 0.730527
vt 0.393804 0.018804
vt 0.606196 0.018804
vt 0.606196 0.231196
vt 0.393804 0.231196
vt 0.372822 0.720444
vt 0.372888 0.730254
vt 0.370851 0.739950
vt 0.368737 0.739955
vt 0.631268 0.528014
vt 0.868732 0.519425
vt 0.868732 0.730575
vt 0.631268 0.721986
vt 0.131256 0.500000
vt 0.365663 0.500000
vt 0.368737 0.510045
vt 0.393804 0.256256
vt 0.606196 0.256257
vt 0.606197 0.490666
vt 0.393803 0.490667
vt 0.385091 0.529681
vt 0.393804 0.544804
vt 0.393804 0.705196
vt 0.385091 0.720319
vt 0.625000 0.755902
vt 0.625000 0.993366
vt 0.606196 0.993743
vt 0.606197 0.759334
vt 0.612773 0.756133
vt 0.368737 0.739955
vt 0.365663 0.750000
vt 0.131256 0.750000
vt 0.606196 0.248902
vt 0.625000 0.230063
vt 0.125000 0.518804
vt 0.131256 0.500000
vt 0.606196 0.001098
vt 0.625000 0.019937
vt 0.125000 0.731196
vt 0.368737 0.510045
vt 0.370851 0.510050
vt 0.372888 0.519746
vt 0.372822 0.529556
vt 0.606114 0.495858
vt 0.612730 0.493872
vt 0.624878 0.494111
vt 0.612524 0.497955
vt 0.606034 0.497885
vt 0.393804 0.000000
vt 0.606196 0.000000
vt 0.606034 0.752115
vt 0.612524 0.752045
vt 0.624878 0.755888
vt 0.612730 0.756128
vt 0.606114 0.754142
vt 0.393803 0.759332
vt 0.393804 0.993744
vt 0.606196 0.543445
vt 0.606196 0.706555
vt 0.614903 0.721233
vt 0.614903 0.528767
vt 0.606197 0.744284
vt 0.393803 0.744031
vt 0.393804 0.732237
vt 0.606196 0.732806
vt 0.625000 0.256634
vt 0.625000 0.494098
vt 0.612773 0.493867
vt 0.609555 0.493806
vt 0.610728 0.528959
vt 0.368738 0.505206
vt 0.389374 0.529832
vt 0.605951 0.750000
vt 0.609555 0.756194
vt 0.375000 0.720204
vt 0.368738 0.744794
vt 0.393804 0.517763
vt 0.606196 0.517194
vt 0.606197 0.505716
vt 0.393803 0.505969
s 0
usemtl Material
f 10/1/1 2/2/1 4/3/1 14/4/1
f 16/5/2 11/6/2 6/7/2 8/8/2
f 37/9/3 36/10/3 38/11/3 40/12/3 4/3/3
f 1/13/4 7/14/4 13/15/4 3/16/4
f 2/2/5 10/1/5 9/17/5 23/18/5 25/19/5
f 9/20/6 5/21/6 18/22/6 23/23/6
f 4/3/7 2/2/7 28/24/7 27/25/7 35/26/7 37/27/7
f 3/28/8 13/29/8 12/30/8 32/31/8 34/32/8
f 14/4/9 4/3/9 40/33/9 39/34/9 15/35/9
f 5/36/10 6/7/10 7/37/10
f 8/38/11 9/39/11 10/1/11
f 11/6/12 12/40/12 13/41/12
f 14/4/13 15/35/13 16/42/13
f 10/1/14 14/4/14 16/42/14 8/38/14
f 2/2/15 25/43/15 24/44/15 26/45/15 28/46/15
f 17/47/16 19/48/16 1/49/16 22/50/16 21/51/16
f 15/52/17 12/53/17 11/6/17 16/5/17
f 29/54/18 31/55/18 3/56/18 34/57/18 33/58/18
f 5/21/19 9/20/19 8/8/19 6/7/19
f 39/59/20 32/31/20 12/30/20 15/60/20
f 27/25/21 20/61/21 30/62/21 35/26/21
f 13/41/22 7/37/22 6/7/22 11/6/22
f 1/13/23 3/16/23 31/63/23 30/62/23 20/61/23 22/64/23
f 33/65/24 38/66/24 36/67/24 29/68/24
f 7/69/25 1/70/25 19/71/25 18/22/25 5/21/25
f 17/72/26 18/22/26 19/71/26
f 20/61/27 21/73/27 22/64/27
f 23/18/28 24/74/28 25/19/28
f 26/75/29 27/25/29 28/24/29
f 29/54/30 30/76/30 31/55/30
f 32/31/31 33/77/31 34/32/31
f 35/78/32 36/10/32 37/9/32
f 38/79/33 39/34/33 40/33/33
f 20/61/34 27/25/34 26/80/34 21/81/34
f 23/23/35 18/22/35 17/82/35 24/83/35
f 32/31/36 39/59/36 38/66/36 33/65/36
f 35/26/37 30/62/37 29/68/37 36/67/37
f 21/81/38 26/80/38 24/83/38 17/82/38
